<?xml version="1.0" encoding="utf-8"?>
<svg viewBox="158.261 6.315 23.151 18.518" xmlns="http://www.w3.org/2000/svg">
  <path d="M178.927 6.31476H181.354L171.502 17.3576C171.247 17.6314 171.239 18.0681 171.487 18.3493L177.171 24.8329H174.635L169.381 18.823L169.119 18.4974C168.871 18.2161 168.878 17.7794 169.133 17.5056L178.927 6.31476Z" fill="#24D1E9"/>
  <path d="M173.455 18.3567C173.294 18.1717 173.236 17.92 173.294 17.6906C173.338 17.5648 173.433 17.4241 173.52 17.3279L174.176 16.6174L181.412 24.8329H179.109C179.109 24.8329 174.868 19.9776 173.455 18.3567Z" fill="#24D1E9"/>
  <path d="M160.79 24.8329H158.261L166.014 16.0253C166.262 15.7441 166.262 15.3222 166.014 15.0483L158.319 6.31476H160.753L168.492 15.1224C168.689 15.3814 168.725 15.7589 168.514 16.0031C166.488 18.3049 160.79 24.8329 160.79 24.8329Z" fill="#24D1E9"/>
  <path d="M165.031 6.31476H162.691L169.862 14.4636C169.862 14.4636 169.884 14.4488 170.685 13.5237C170.904 13.272 170.948 12.9612 170.707 12.7243C169.199 11.207 165.031 6.31476 165.031 6.31476Z" fill="#24D1E9"/>
  <path d="M172.012 11.999L176.989 6.31476H174.635L172.034 9.2901L171.283 10.1487C171.028 10.4225 171.021 10.8518 171.268 11.1404C171.458 11.3551 172.012 11.999 172.012 11.999Z" fill="#24D1E9"/>
  <path d="M167.69 19.1487L162.713 24.833H165.067L167.669 21.8576L168.419 20.9991C168.674 20.7252 168.681 20.296 168.434 20.0073C168.244 19.7927 167.69 19.1487 167.69 19.1487Z" fill="#24D1E9"/>
</svg>