<svg width="222" height="48" viewBox="0 0 222 48" fill="none" xmlns="http://www.w3.org/2000/svg">
<g clip-path="url(#clip0_556_2836)">
<path d="M216.286 12.537H219.219L207.31 25.7171C207.002 26.044 206.993 26.5652 207.292 26.9008L214.163 34.6393H211.098L204.747 27.4662L204.429 27.0775C204.13 26.7418 204.139 26.2206 204.447 25.8938L216.286 12.537Z" fill="#24D1E9"/>
<path d="M209.67 26.9097C209.477 26.6889 209.406 26.3885 209.477 26.1147C209.53 25.9645 209.644 25.7966 209.75 25.6818L210.543 24.8337L219.289 34.6393H216.506C216.506 34.6393 211.379 28.8443 209.67 26.9097Z" fill="#24D1E9"/>
<path d="M194.361 34.6393H191.304L200.677 24.127C200.976 23.7913 200.976 23.2878 200.677 22.9609L191.375 12.537H194.317L203.672 23.0493C203.91 23.3585 203.954 23.809 203.698 24.1005C201.249 26.8478 194.361 34.6393 194.361 34.6393Z" fill="#24D1E9"/>
<path d="M199.488 12.537H196.66L205.328 22.2631C205.328 22.2631 205.354 22.2454 206.323 21.1412C206.587 20.8408 206.64 20.4698 206.35 20.1871C204.526 18.3762 199.488 12.537 199.488 12.537Z" fill="#24D1E9"/>
<path d="M207.926 19.3214L213.943 12.537H211.097L207.953 16.0882L207.045 17.1129C206.737 17.4398 206.728 17.9521 207.028 18.2967C207.257 18.5528 207.926 19.3214 207.926 19.3214Z" fill="#24D1E9"/>
<path d="M202.703 27.855L196.687 34.6394H199.532L202.676 31.0882L203.584 30.0634C203.892 29.7366 203.901 29.2242 203.601 28.8797C203.372 28.6235 202.703 27.855 202.703 27.855Z" fill="#24D1E9"/>
<path d="M51.7578 15.147H54.1508C54.614 15.147 55.0771 15.3785 55.3859 15.7257L60.5192 22.1303L65.6525 15.7257C65.9613 15.3399 66.3859 15.147 66.8876 15.147H69.2806V31.5057H65.7683V20.7413L60.5192 27.3003L55.2701 20.7413V31.5057H51.7578V15.147Z" fill="#EEEEEE"/>
<path d="M73.3333 15.147H75.7262C76.1894 15.147 76.6526 15.3785 76.9613 15.7257L82.0947 22.1303L87.228 15.7257C87.5368 15.3399 87.9613 15.147 88.4631 15.147H90.8561V31.5057H87.3438V20.7413L82.0947 27.3003L76.8455 20.7413V31.5057H73.3333V15.147Z" fill="#EEEEEE"/>
<path d="M108.726 24.7153V15.147H106.295C105.677 15.147 105.214 15.6485 105.214 16.2273V24.7153C105.214 27.0688 103.709 28.5735 101.586 28.5735C99.4631 28.5735 97.9578 27.0688 97.9578 24.7153V16.2273C97.9578 15.61 97.4561 15.147 96.8771 15.147H94.4456V24.7153C94.4456 28.0719 96.2982 30.6183 99.1929 31.5057C99.9263 31.7372 100.737 31.8529 101.586 31.8529C102.435 31.8529 103.246 31.7372 103.979 31.5057C106.874 30.6183 108.726 28.0719 108.726 24.7153Z" fill="#EEEEEE"/>
<path d="M123.972 18.4264V15.147H111.119V18.4264H115.789V31.5057H119.302V18.4264H123.972Z" fill="#EEEEEE"/>
<path d="M129.723 16.1501L123.779 31.5057H127.523L128.912 27.7632H135.242L136.631 31.5057H140.375L134.47 16.1501C134.238 15.5328 133.66 15.147 133.003 15.147H131.228C130.572 15.147 129.993 15.5328 129.723 16.1501ZM130.147 24.5995L132.077 19.2366H132.154L134.084 24.5995H130.147Z" fill="#EEEEEE"/>
<path d="M155.621 26.8373C155.621 25.2554 154.849 24.2909 154.116 23.6736C153.653 23.3263 153.151 23.0563 152.61 22.8633C152.996 22.709 153.382 22.4389 153.691 22.1303C154.27 21.5901 154.81 20.7799 154.81 19.4681C154.81 17.1146 152.842 15.147 149.561 15.147H142.653V31.5057H150.025C153.498 31.5057 155.621 29.3837 155.621 26.8373ZM146.126 18.1949H149.291C150.488 18.1949 151.144 18.8894 151.144 19.8154C151.144 20.7413 150.449 21.4358 149.291 21.4358H146.126V18.1949ZM149.754 28.4577H146.126V24.4838H149.754C151.144 24.4838 151.993 25.294 151.993 26.4515C151.993 27.6861 151.182 28.4577 149.754 28.4577Z" fill="#EEEEEE"/>
<path d="M162.105 28.2262V16.2273C162.105 15.61 161.604 15.147 161.025 15.147H158.593V31.5057H169.709V28.2262H162.105Z" fill="#EEEEEE"/>
<path d="M173.144 15.147H184.221V18.4264H175.576V21.5901H182.369V24.7539H175.576V28.2648H184.453V31.5443H173.144C172.526 31.5443 172.063 31.0427 172.063 30.464V16.2273C172.063 15.6485 172.565 15.147 173.144 15.147Z" fill="#EEEEEE"/>
<path d="M44.5404 19.7382L47.9368 17.7705V15.147H45.5053C44.8877 15.147 44.4246 15.6485 44.4246 16.2273V19.8154L44.5404 19.7382Z" fill="#EEEEEE"/>
<path d="M44.5404 21.7831L44.4246 21.8603V31.5057H47.9368V19.8154L44.5404 21.7831Z" fill="#EEEEEE"/>
<path d="M33.3089 15.803V25.1784C33.3089 26.1815 32.7685 27.146 31.8808 27.6476L18.4106 35.4411V31.39L29.2563 25.1398C29.6036 24.9469 29.7966 24.5996 29.7966 24.2138V12.1377L31.8808 13.3337C32.7685 13.8739 33.3089 14.7998 33.3089 15.803Z" fill="#EEEEEE"/>
<path d="M14.8982 37.9489V42L1.42807 34.245C0.540351 33.7049 0 32.7789 0 31.7758V22.4004C0 21.3973 0.540351 20.4327 1.42807 19.9311L10.9614 14.4139L14.4737 16.4588L4.05263 22.4775C3.70526 22.6705 3.51228 23.0177 3.51228 23.4035V30.7341C3.51228 31.1199 3.70526 31.4671 4.05263 31.66L14.8982 37.9489Z" fill="#EEEEEE"/>
<path d="M33.3089 29.3451V31.7758C33.3089 32.7789 32.7685 33.7434 31.8808 34.245L18.4106 41.9999V37.9488L33.3089 29.3451Z" fill="#EEEEEE"/>
<path d="M21.9228 14.1824V18.2335L11.5018 12.2148C11.1544 12.0219 10.7684 12.0219 10.4211 12.2148L0 18.2335V15.8029C0 14.7997 0.540351 13.8352 1.42807 13.3336L9.53333 8.66524C10.4211 8.16367 11.5018 8.16367 12.3895 8.66524L21.9228 14.1824Z" fill="#EEEEEE"/>
<path d="M14.8981 31.39V35.4411L5.67358 30.1168V24.0209L9.22446 22.0146V28.1106L14.8981 31.39Z" fill="#EEEEEE"/>
<path d="M26.207 10.0542C27.0947 10.5558 27.6351 11.5203 27.6351 12.5235V23.5579L24.1228 25.5641V13.5652C24.1228 13.1794 23.9298 12.8321 23.5824 12.6392L13.1614 6.62044L15.2456 5.38582C16.1333 4.88425 17.214 4.88425 18.1017 5.38582L26.207 10.0542Z" fill="#EEEEEE"/>
</g>
<defs>
<clipPath id="clip0_556_2836">
<rect width="220" height="37" fill="white" transform="translate(0 5)"/>
</clipPath>
</defs>
</svg>
