<svg width="24" height="24" viewBox="0 0 24 24" fill="none" xmlns="http://www.w3.org/2000/svg">
<path d="M23 10.9641C23 9.62667 21.9073 8.5395 20.5644 8.5395C19.909 8.5395 19.315 8.80167 18.8778 9.22333C17.2186 8.13158 14.9737 7.43675 12.4877 7.34783L13.8471 3.06792L17.5284 3.9305L17.5229 3.98367C17.5229 5.07725 18.4167 5.96642 19.5157 5.96642C20.6139 5.96642 21.5068 5.07725 21.5068 3.98367C21.5068 2.89008 20.613 2 19.5157 2C18.6724 2 17.9538 2.52617 17.6632 3.26408L13.6949 2.33367C13.5217 2.2915 13.3457 2.39142 13.2916 2.56192L11.7754 7.335C9.17392 7.36617 6.81717 8.0665 5.08375 9.19125C4.64925 8.78975 4.07267 8.53858 3.43467 8.53858C2.09175 8.53858 1 9.62667 1 10.9641C1 11.8532 1.48858 12.6242 2.20725 13.0458C2.15958 13.3043 2.12842 13.5656 2.12842 13.8314C2.12842 17.4165 6.53575 20.3333 11.9542 20.3333C17.3726 20.3333 21.7808 17.4165 21.7808 13.8314C21.7808 13.5802 21.7542 13.3327 21.7121 13.0889C22.4748 12.6792 23 11.8862 23 10.9641ZM7.21133 12.6287C7.21133 11.8331 7.86217 11.185 8.6615 11.185C9.46083 11.185 10.1108 11.8331 10.1108 12.6287C10.1108 13.4244 9.46083 14.0716 8.6615 14.0716C7.86217 14.0716 7.21133 13.4244 7.21133 12.6287ZM15.5173 16.9087C14.7867 17.6356 13.6399 17.9894 12.0119 17.9894L12 17.9867L11.9881 17.9894C10.3592 17.9894 9.21242 17.6356 8.48275 16.9087C8.34983 16.7767 8.34983 16.5612 8.48275 16.4292C8.61567 16.2963 8.832 16.2963 8.96492 16.4292C9.56075 17.0223 10.5498 17.3102 11.9881 17.3102L12 17.3129L12.0119 17.3102C13.4502 17.3102 14.4392 17.0214 15.0351 16.4283C15.168 16.2954 15.3843 16.2963 15.5173 16.4283C15.6502 16.5612 15.6502 16.7757 15.5173 16.9087ZM15.344 14.0716C14.5447 14.0716 13.8948 13.4244 13.8948 12.6287C13.8948 11.8331 14.5447 11.185 15.344 11.185C16.1433 11.185 16.7933 11.8331 16.7933 12.6287C16.7933 13.4244 16.1433 14.0716 15.344 14.0716Z" fill="#EEEEEE"/>
</svg>
