<svg width="24" height="24" viewBox="0 0 24 24" fill="none" xmlns="http://www.w3.org/2000/svg">
<path fill-rule="evenodd" clip-rule="evenodd" d="M16.852 21.1304C17.1471 21.3393 17.5275 21.3916 17.8667 21.2633C18.2059 21.134 18.4552 20.8444 18.5304 20.4933C19.3269 16.7497 21.2592 7.27433 21.9843 3.86899C22.0393 3.61233 21.9476 3.34559 21.746 3.17418C21.5443 3.00276 21.2647 2.95326 21.0154 3.04585C17.1719 4.46848 5.33524 8.90963 0.497187 10.6998C0.19011 10.8135 -0.00971841 11.1087 0.000364691 11.4322C0.0113644 11.7567 0.229526 12.0381 0.543936 12.1326C2.71364 12.7815 5.56165 13.6844 5.56165 13.6844C5.56165 13.6844 6.89262 17.7039 7.58653 19.7481C7.67361 20.0047 7.87435 20.2064 8.13926 20.276C8.40326 20.3448 8.68558 20.2724 8.88266 20.0863C9.9973 19.034 11.7206 17.4069 11.7206 17.4069C11.7206 17.4069 14.9949 19.8076 16.852 21.1304ZM6.75971 13.1766L8.29876 18.253L8.64067 15.0383C8.64067 15.0383 14.587 9.67503 17.9767 6.61802C18.0757 6.52818 18.0895 6.37785 18.007 6.27244C17.9254 6.16703 17.775 6.14228 17.6623 6.21377C13.7336 8.72263 6.75971 13.1766 6.75971 13.1766Z" fill="#131313"/>
</svg>
