<svg width="26" height="26" viewBox="0 0 26 26" fill="none" xmlns="http://www.w3.org/2000/svg">
<g clip-path="url(#clip0_660_3081)">
<path d="M13.0004 7.6666C10.0564 7.6666 7.66709 10.0559 7.66709 12.9999C7.66709 15.9439 10.0564 18.3333 13.0004 18.3333C15.9444 18.3333 18.3338 15.9439 18.3338 12.9999C18.3338 10.0559 15.9444 7.6666 13.0004 7.6666ZM2.33376 14.0666H4.46709C5.05376 14.0666 5.53376 13.5866 5.53376 12.9999C5.53376 12.4133 5.05376 11.9333 4.46709 11.9333H2.33376C1.74709 11.9333 1.26709 12.4133 1.26709 12.9999C1.26709 13.5866 1.74709 14.0666 2.33376 14.0666ZM21.5338 14.0666H23.6671C24.2538 14.0666 24.7338 13.5866 24.7338 12.9999C24.7338 12.4133 24.2538 11.9333 23.6671 11.9333H21.5338C20.9471 11.9333 20.4671 12.4133 20.4671 12.9999C20.4671 13.5866 20.9471 14.0666 21.5338 14.0666ZM11.9338 2.33327V4.4666C11.9338 5.05327 12.4138 5.53327 13.0004 5.53327C13.5871 5.53327 14.0671 5.05327 14.0671 4.4666V2.33327C14.0671 1.7466 13.5871 1.2666 13.0004 1.2666C12.4138 1.2666 11.9338 1.7466 11.9338 2.33327ZM11.9338 21.5333V23.6666C11.9338 24.2533 12.4138 24.7333 13.0004 24.7333C13.5871 24.7333 14.0671 24.2533 14.0671 23.6666V21.5333C14.0671 20.9466 13.5871 20.4666 13.0004 20.4666C12.4138 20.4666 11.9338 20.9466 11.9338 21.5333ZM6.58976 5.08527C6.17376 4.66927 5.49109 4.66927 5.08576 5.08527C4.66976 5.50127 4.66976 6.18393 5.08576 6.58927L6.21642 7.71993C6.63242 8.13593 7.31509 8.13593 7.72042 7.71993C8.12576 7.30393 8.13642 6.62127 7.72042 6.21593L6.58976 5.08527ZM19.7844 18.2799C19.3684 17.8639 18.6858 17.8639 18.2804 18.2799C17.8644 18.6959 17.8644 19.3786 18.2804 19.7839L19.4111 20.9146C19.8271 21.3306 20.5098 21.3306 20.9151 20.9146C21.3311 20.4986 21.3311 19.8159 20.9151 19.4106L19.7844 18.2799ZM20.9151 6.58927C21.3311 6.17327 21.3311 5.4906 20.9151 5.08527C20.4991 4.66927 19.8164 4.66927 19.4111 5.08527L18.2804 6.21593C17.8644 6.63193 17.8644 7.3146 18.2804 7.71993C18.6964 8.12527 19.3791 8.13593 19.7844 7.71993L20.9151 6.58927ZM7.72042 19.7839C8.13642 19.3679 8.13642 18.6853 7.72042 18.2799C7.30442 17.8639 6.62176 17.8639 6.21642 18.2799L5.08576 19.4106C4.66976 19.8266 4.66976 20.5093 5.08576 20.9146C5.50176 21.3199 6.18442 21.3306 6.58976 20.9146L7.72042 19.7839Z" fill="#EEEEEE"/>
</g>
<defs>
<clipPath id="clip0_660_3081">
<rect width="25.6" height="25.6" fill="white" transform="translate(0.200195 0.199951)"/>
</clipPath>
</defs>
</svg>
