<svg width="24" height="24" viewBox="0 0 24 24" fill="none" xmlns="http://www.w3.org/2000/svg">
<path d="M23.5014 6.25876C23.1558 6.41205 22.8004 6.54143 22.4374 6.64646C22.8672 6.16033 23.195 5.58833 23.395 4.9624C23.4399 4.8221 23.3934 4.66852 23.2781 4.57676C23.1629 4.48493 23.0028 4.47393 22.876 4.54908C22.105 5.0064 21.2731 5.33505 20.4008 5.52723C19.5222 4.66867 18.3288 4.18005 17.0951 4.18005C14.4909 4.18005 12.3723 6.29865 12.3723 8.90273C12.3723 9.10783 12.3853 9.31179 12.4109 9.51291C9.17944 9.22918 6.17518 7.64086 4.11215 5.11023C4.03863 5.02003 3.92536 4.97141 3.8094 4.98071C3.69337 4.98979 3.58912 5.05523 3.5305 5.15579C3.11208 5.87376 2.89087 6.69493 2.89087 7.53043C2.89087 8.6684 3.29716 9.7481 4.01485 10.5918C3.79663 10.5162 3.58486 10.4217 3.38275 10.3095C3.27424 10.2491 3.14181 10.25 3.03401 10.3119C2.92614 10.3737 2.85851 10.4874 2.85567 10.6116C2.85517 10.6326 2.85517 10.6535 2.85517 10.6747C2.85517 12.3733 3.76938 13.9026 5.16708 14.7361C5.04701 14.7241 4.927 14.7067 4.80777 14.684C4.68486 14.6605 4.55846 14.7035 4.47557 14.7973C4.39254 14.891 4.36508 15.0216 4.40333 15.1408C4.92068 16.756 6.25267 17.9441 7.86293 18.3063C6.52739 19.1428 5.0001 19.5809 3.3968 19.5809C3.06226 19.5809 2.7258 19.5613 2.39651 19.5223C2.23293 19.5029 2.07652 19.5995 2.02081 19.755C1.9651 19.9106 2.02414 20.0842 2.16331 20.1734C4.223 21.494 6.6046 22.192 9.0505 22.192C13.8588 22.192 16.8668 19.9246 18.5434 18.0225C20.6341 15.6507 21.8332 12.5113 21.8332 9.40937C21.8332 9.27978 21.8312 9.14892 21.8272 9.01848C22.6521 8.39702 23.3622 7.6449 23.9401 6.78045C24.0279 6.64916 24.0184 6.47564 23.9167 6.35478C23.8151 6.23385 23.6459 6.19475 23.5014 6.25876Z" fill="#EEEEEE"/>
</svg>
