<svg width="48" height="48" viewBox="0 0 33 32" fill="none" xmlns="http://www.w3.org/2000/svg">
<mask id="mask0_92_2873" style="mask-type:alpha" maskUnits="userSpaceOnUse" x="0" y="0" width="33" height="32">
<path fill-rule="evenodd" clip-rule="evenodd" d="M0.708008 0H32.708V32H0.708008V0Z" fill="white"/>
</mask>
<g mask="url(#mask0_92_2873)">
<path d="M16.708 0C7.87148 0 0.708008 7.16347 0.708008 16C0.708008 24.8365 7.87148 32 16.708 32C25.5445 32 32.708 24.8365 32.708 16C32.708 7.16347 25.5445 0 16.708 0ZM18.0187 11.364L18.6405 10.6378L20.7967 8.12376H22.7472L18.6211 12.9282C18.6211 12.9282 18.1619 12.384 18.0053 12.2021C17.7995 11.9575 17.8055 11.5952 18.0172 11.364H18.0187ZM12.8355 8.12376C12.8355 8.12376 16.2905 12.2587 17.5416 13.5411C17.7414 13.7409 17.7041 14.0034 17.5237 14.2166C16.8586 14.9979 16.8407 15.0114 16.8407 15.0114L10.897 8.12376H12.8355ZM15.6448 20.5346L15.023 21.2608L12.8668 23.7748H10.9164L15.0424 18.9704C15.0424 18.9704 15.5017 19.5146 15.6582 19.6966C15.864 19.9411 15.8581 20.3034 15.6463 20.5346H15.6448ZM15.7239 16.3116C14.0448 18.2576 9.32087 23.7733 9.32087 23.7733H7.22432L13.6512 16.3295C13.8569 16.0925 13.8569 15.7346 13.6512 15.5034L7.27352 8.12376H9.29105L15.706 15.5676C15.8685 15.7868 15.8998 16.1059 15.7239 16.3116ZM20.7982 23.7733L16.4426 18.6945L16.2249 18.4186C16.0191 18.1815 16.0251 17.8117 16.2368 17.5806L24.3546 8.12376H26.3662L18.1992 17.4568C17.9874 17.688 17.9814 18.0578 18.1872 18.2949L22.8992 23.7748H20.7967L20.7982 23.7733ZM24.5067 23.7733C24.5067 23.7733 20.9906 19.6697 19.8185 18.2993C19.6858 18.1428 19.6366 17.931 19.6858 17.7372C19.7216 17.6313 19.8006 17.512 19.8737 17.43L20.418 16.8291L26.4154 23.7719H24.5067V23.7733Z" fill="#131313"/>
</g>
</svg>
