<svg width="161" height="22" viewBox="0 0 161 22" fill="none" xmlns="http://www.w3.org/2000/svg">
<path d="M0.429688 17V0.03125H6.47656C8.17188 0.03125 9.63672 0.371094 10.8711 1.05078C12.1055 1.72266 13.0508 2.69531 13.707 3.96875C14.3711 5.24219 14.7031 6.75 14.7031 8.49219C14.7031 10.25 14.3711 11.7695 13.707 13.0508C13.043 14.3242 12.0898 15.3008 10.8477 15.9805C9.60547 16.6602 8.125 17 6.40625 17H0.429688ZM6.26562 13.9766C7.90625 13.9766 9.13672 13.5312 9.95703 12.6406C10.7773 11.75 11.1875 10.3672 11.1875 8.49219C11.1875 6.63281 10.7773 5.26172 9.95703 4.37891C9.14453 3.49609 7.92188 3.05469 6.28906 3.05469H3.94531V13.9766H6.26562ZM22.9531 17.2578C21.6641 17.2578 20.5469 16.9922 19.6016 16.4609C18.6641 15.9297 17.9414 15.1719 17.4336 14.1875C16.9258 13.1953 16.6719 12.0312 16.6719 10.6953C16.6719 9.39062 16.9219 8.24219 17.4219 7.25C17.9297 6.25 18.6484 5.47656 19.5781 4.92969C20.5078 4.38281 21.5859 4.10938 22.8125 4.10938C23.9531 4.10938 24.9727 4.35156 25.8711 4.83594C26.7773 5.3125 27.4883 6.03516 28.0039 7.00391C28.5273 7.97266 28.7891 9.15625 28.7891 10.5547V11.5391H20.0938C20.0938 12.1719 20.2109 12.7227 20.4453 13.1914C20.6875 13.6602 21.0273 14.0234 21.4648 14.2812C21.9102 14.5312 22.4297 14.6562 23.0234 14.6562C23.5938 14.6562 24.0859 14.543 24.5 14.3164C24.9141 14.082 25.2109 13.7656 25.3906 13.3672H28.6953C28.5312 14.1484 28.1953 14.832 27.6875 15.418C27.1797 16.0039 26.5195 16.457 25.707 16.7773C24.9023 17.0977 23.9844 17.2578 22.9531 17.2578ZM25.5078 9.35938C25.5078 8.85156 25.3945 8.39844 25.168 8C24.9492 7.59375 24.6406 7.27734 24.2422 7.05078C23.8438 6.82422 23.3906 6.71094 22.8828 6.71094C22.3672 6.71094 21.8984 6.82812 21.4766 7.0625C21.0625 7.29688 20.7305 7.61719 20.4805 8.02344C20.2383 8.42969 20.1094 8.875 20.0938 9.35938H25.5078ZM37.9531 17H34.0625L29.6094 4.27344H33.2656L35.9375 13.4141H36.0781L38.75 4.27344H42.4297L37.9531 17ZM49.4609 17.2578C48.1719 17.2578 47.0547 16.9922 46.1094 16.4609C45.1719 15.9297 44.4492 15.1719 43.9414 14.1875C43.4336 13.1953 43.1797 12.0312 43.1797 10.6953C43.1797 9.39062 43.4297 8.24219 43.9297 7.25C44.4375 6.25 45.1562 5.47656 46.0859 4.92969C47.0156 4.38281 48.0938 4.10938 49.3203 4.10938C50.4609 4.10938 51.4805 4.35156 52.3789 4.83594C53.2852 5.3125 53.9961 6.03516 54.5117 7.00391C55.0352 7.97266 55.2969 9.15625 55.2969 10.5547V11.5391H46.6016C46.6016 12.1719 46.7188 12.7227 46.9531 13.1914C47.1953 13.6602 47.5352 14.0234 47.9727 14.2812C48.418 14.5312 48.9375 14.6562 49.5312 14.6562C50.1016 14.6562 50.5938 14.543 51.0078 14.3164C51.4219 14.082 51.7188 13.7656 51.8984 13.3672H55.2031C55.0391 14.1484 54.7031 14.832 54.1953 15.418C53.6875 16.0039 53.0273 16.457 52.2148 16.7773C51.4102 17.0977 50.4922 17.2578 49.4609 17.2578ZM52.0156 9.35938C52.0156 8.85156 51.9023 8.39844 51.6758 8C51.457 7.59375 51.1484 7.27734 50.75 7.05078C50.3516 6.82422 49.8984 6.71094 49.3906 6.71094C48.875 6.71094 48.4062 6.82812 47.9844 7.0625C47.5703 7.29688 47.2383 7.61719 46.9883 8.02344C46.7461 8.42969 46.6172 8.875 46.6016 9.35938H52.0156ZM60.9453 17H57.4766V0.03125H60.9453V17ZM69.3594 17.2578C68.0938 17.2578 66.9922 16.9844 66.0547 16.4375C65.1172 15.8906 64.3945 15.1211 63.8867 14.1289C63.3789 13.1289 63.125 11.9766 63.125 10.6719C63.125 9.36719 63.375 8.21875 63.875 7.22656C64.3828 6.23438 65.1055 5.46875 66.043 4.92969C66.9883 4.38281 68.0938 4.10938 69.3594 4.10938C70.625 4.10938 71.7305 4.38281 72.6758 4.92969C73.6211 5.46875 74.3477 6.23438 74.8555 7.22656C75.3633 8.21875 75.6172 9.36719 75.6172 10.6719C75.6172 11.9766 75.3633 13.1289 74.8555 14.1289C74.3477 15.1211 73.6211 15.8906 72.6758 16.4375C71.7305 16.9844 70.625 17.2578 69.3594 17.2578ZM69.3828 14.5625C69.9609 14.5625 70.4531 14.3984 70.8594 14.0703C71.2656 13.7344 71.5703 13.2734 71.7734 12.6875C71.9766 12.1016 72.0781 11.4297 72.0781 10.6719C72.0781 9.91406 71.9766 9.24219 71.7734 8.65625C71.5703 8.0625 71.2656 7.59766 70.8594 7.26172C70.4531 6.92578 69.9609 6.75781 69.3828 6.75781C68.7969 6.75781 68.2969 6.92578 67.8828 7.26172C67.4766 7.59766 67.168 8.0625 66.957 8.65625C66.7461 9.24219 66.6406 9.91406 66.6406 10.6719C66.6406 11.4219 66.7461 12.0938 66.957 12.6875C67.168 13.2734 67.4766 13.7344 67.8828 14.0703C68.2969 14.3984 68.7969 14.5625 69.3828 14.5625ZM77.7969 4.27344H81.2188V6.40625H81.3594C81.6484 5.76562 82.0859 5.22266 82.6719 4.77734C83.2578 4.33203 84.0312 4.10938 84.9922 4.10938C85.9531 4.10938 86.8242 4.35938 87.6055 4.85938C88.3867 5.35156 89.0039 6.08984 89.457 7.07422C89.918 8.05078 90.1484 9.24219 90.1484 10.6484C90.1484 12.0234 89.9219 13.207 89.4688 14.1992C89.0234 15.1836 88.4102 15.9336 87.6289 16.4492C86.8555 16.957 85.9766 17.2109 84.9922 17.2109C84.0469 17.2109 83.2773 16.9961 82.6836 16.5664C82.0977 16.1289 81.6562 15.5938 81.3594 14.9609H81.2656V21.7812H77.7969V4.27344ZM81.1953 10.625C81.1953 11.3906 81.3008 12.0625 81.5117 12.6406C81.7227 13.2109 82.0312 13.6562 82.4375 13.9766C82.8438 14.2891 83.3281 14.4453 83.8906 14.4453C84.7578 14.4453 85.4258 14.0977 85.8945 13.4023C86.3711 12.707 86.6094 11.7812 86.6094 10.625C86.6094 9.48438 86.3711 8.57422 85.8945 7.89453C85.4258 7.21484 84.7578 6.875 83.8906 6.875C83.0312 6.875 82.3672 7.21094 81.8984 7.88281C81.4297 8.54688 81.1953 9.46094 81.1953 10.625ZM98.1641 17.2578C96.875 17.2578 95.7578 16.9922 94.8125 16.4609C93.875 15.9297 93.1523 15.1719 92.6445 14.1875C92.1367 13.1953 91.8828 12.0312 91.8828 10.6953C91.8828 9.39062 92.1328 8.24219 92.6328 7.25C93.1406 6.25 93.8594 5.47656 94.7891 4.92969C95.7188 4.38281 96.7969 4.10938 98.0234 4.10938C99.1641 4.10938 100.184 4.35156 101.082 4.83594C101.988 5.3125 102.699 6.03516 103.215 7.00391C103.738 7.97266 104 9.15625 104 10.5547V11.5391H95.3047C95.3047 12.1719 95.4219 12.7227 95.6562 13.1914C95.8984 13.6602 96.2383 14.0234 96.6758 14.2812C97.1211 14.5312 97.6406 14.6562 98.2344 14.6562C98.8047 14.6562 99.2969 14.543 99.7109 14.3164C100.125 14.082 100.422 13.7656 100.602 13.3672H103.906C103.742 14.1484 103.406 14.832 102.898 15.418C102.391 16.0039 101.73 16.457 100.918 16.7773C100.113 17.0977 99.1953 17.2578 98.1641 17.2578ZM100.719 9.35938C100.719 8.85156 100.605 8.39844 100.379 8C100.16 7.59375 99.8516 7.27734 99.4531 7.05078C99.0547 6.82422 98.6016 6.71094 98.0938 6.71094C97.5781 6.71094 97.1094 6.82812 96.6875 7.0625C96.2734 7.29688 95.9414 7.61719 95.6914 8.02344C95.4492 8.42969 95.3203 8.875 95.3047 9.35938H100.719ZM106.18 4.27344H109.531V6.47656H109.672C109.898 5.70312 110.285 5.11328 110.832 4.70703C111.379 4.29297 112.016 4.08594 112.742 4.08594C113.141 4.08594 113.508 4.125 113.844 4.20312V7.29688C113.672 7.25 113.441 7.20703 113.152 7.16797C112.863 7.12891 112.602 7.10938 112.367 7.10938C111.852 7.10938 111.387 7.22266 110.973 7.44922C110.559 7.67578 110.234 7.99219 110 8.39844C109.766 8.79688 109.648 9.25 109.648 9.75781V17H106.18V4.27344Z" fill="white"/>
<path d="M131.398 0.03125V11.8672C131.398 12.9531 131.156 13.9023 130.672 14.7148C130.195 15.5195 129.523 16.1406 128.656 16.5781C127.789 17.0156 126.789 17.2344 125.656 17.2344C124.609 17.2344 123.672 17.0508 122.844 16.6836C122.016 16.3086 121.363 15.75 120.887 15.0078C120.418 14.2578 120.188 13.3438 120.195 12.2656H123.711C123.719 12.9297 123.914 13.4531 124.297 13.8359C124.68 14.2109 125.188 14.3984 125.82 14.3984C126.492 14.3984 127.008 14.1836 127.367 13.7539C127.727 13.3242 127.906 12.6953 127.906 11.8672V0.03125H131.398ZM142.344 4.27344H145.812V17H142.484V14.7031H142.344C142.039 15.4609 141.551 16.0625 140.879 16.5078C140.215 16.9453 139.414 17.1641 138.477 17.1641C137.625 17.1641 136.875 16.9727 136.227 16.5898C135.586 16.207 135.086 15.6562 134.727 14.9375C134.367 14.2109 134.188 13.3594 134.188 12.3828V4.27344H137.656V11.7734C137.656 12.5234 137.855 13.1211 138.254 13.5664C138.66 14.0117 139.203 14.2344 139.883 14.2344C140.32 14.2344 140.727 14.1328 141.102 13.9297C141.477 13.7188 141.777 13.4141 142.004 13.0156C142.23 12.6172 142.344 12.1406 142.344 11.5859V4.27344ZM151.977 17H148.508V4.27344H151.812V6.5H151.953C152.25 5.75 152.73 5.16406 153.395 4.74219C154.059 4.32031 154.852 4.10938 155.773 4.10938C156.656 4.10938 157.43 4.30078 158.094 4.68359C158.758 5.06641 159.27 5.62109 159.629 6.34766C159.988 7.06641 160.164 7.91406 160.156 8.89062V17H156.711V9.5C156.711 8.71875 156.508 8.10547 156.102 7.66016C155.695 7.21484 155.133 6.99219 154.414 6.99219C153.672 6.99219 153.078 7.22656 152.633 7.69531C152.195 8.16406 151.977 8.8125 151.977 9.64062V17Z" fill="#007AF4"/>
</svg>
