<svg width="24" height="24" viewBox="0 0 24 24" fill="none" xmlns="http://www.w3.org/2000/svg">
<path d="M19.6361 4.09815C18.212 3.43184 16.6893 2.94761 15.0973 2.67188C14.9018 3.02535 14.6734 3.50078 14.5159 3.87899C12.8236 3.62449 11.1469 3.62449 9.48573 3.87899C9.32828 3.50078 9.09467 3.02535 8.89741 2.67188C7.30374 2.94761 5.77928 3.43362 4.35518 4.10167C1.48276 8.44228 0.70409 12.6751 1.09342 16.8478C2.99856 18.2705 4.84487 19.1347 6.66003 19.7003C7.1082 19.0835 7.50791 18.4278 7.85224 17.7367C7.19644 17.4875 6.56832 17.18 5.97482 16.823C6.13227 16.7064 6.28628 16.5844 6.43508 16.4589C10.055 18.1521 13.9882 18.1521 17.5648 16.4589C17.7154 16.5844 17.8694 16.7064 18.0251 16.823C17.4299 17.1818 16.8 17.4893 16.1442 17.7385C16.4885 18.4278 16.8865 19.0852 17.3364 19.702C19.1533 19.1365 21.0014 18.2722 22.9065 16.8478C23.3633 12.0105 22.1261 7.81663 19.6361 4.09815ZM8.34541 14.2816C7.25874 14.2816 6.36759 13.2671 6.36759 12.0317C6.36759 10.7964 7.23972 9.78016 8.34541 9.78016C9.45114 9.78016 10.3423 10.7946 10.3232 12.0317C10.325 13.2671 9.45114 14.2816 8.34541 14.2816ZM15.6545 14.2816C14.5678 14.2816 13.6767 13.2671 13.6767 12.0317C13.6767 10.7964 14.5488 9.78016 15.6545 9.78016C16.7602 9.78016 17.6514 10.7946 17.6323 12.0317C17.6323 13.2671 16.7602 14.2816 15.6545 14.2816Z" fill="#EEEEEE"/>
</svg>
